<svg xmlns="http://www.w3.org/2000/svg" viewBox="0 0 960 540" width="960" height="540" role="img" aria-labelledby="t d" font-family="'Segoe UI', Roboto, Helvetica, Arial, sans-serif">
<title id="t">Cam 2 P3: Pulpit, full body, subject framed left</title>
<desc id="d">Mock 16:9 camera frame for Cam 2 P3 — Pulpit, full body, subject framed left. Dashed lines are the rule-of-thirds guides.</desc>
<defs>
<marker id="arrow" viewBox="0 0 10 10" refX="9" refY="5" markerWidth="8" markerHeight="8" orient="auto-start-reverse"><path d="M0,0 L10,5 L0,10 z" fill="#1a1a1a"/></marker>
<marker id="arrow-mid" viewBox="0 0 10 10" refX="9" refY="5" markerWidth="8" markerHeight="8" orient="auto-start-reverse"><path d="M0,0 L10,5 L0,10 z" fill="#808080"/></marker>
<filter id="blur" x="-10%" y="-10%" width="120%" height="120%"><feGaussianBlur stdDeviation="12"/></filter>
<clipPath id="frame"><rect width="960" height="540"/></clipPath>
</defs>
<rect width="960" height="540" fill="#ffffff"/><g clip-path="url(#frame)"><rect width="960" height="540" fill="#f0f0f0"/><path d="M0,372 L960,292 L960,412 L0,512 Z" fill="#e0e0e0"/><path d="M0,512 L960,412 L960,446 L0,556 Z" fill="#b3b3b3"/><path d="M0,556 L960,446 L960,540 L0,540 Z" fill="#ffffff"/><circle cx="205.0" cy="85.8" r="25.8" fill="#4d4d4d"/><path d="M189.9,107.3 L220.1,107.3 L222.2,118.1 Q263.1,120.2 267.4,150.3 L271.6,275.0 L250.2,283.6 L245.8,490.0 L213.6,490.0 L205.0,305.1 L196.4,490.0 L164.2,490.0 L159.8,283.6 L138.3,275.0 L142.7,150.3 Q146.9,120.2 187.8,118.1 Z" fill="#4d4d4d"/><path d="M269.6,262.4 L370.4,262.4 L360.8,500.0 L279.2,500.0 Z" fill="#b3b3b3" stroke="#4d4d4d" stroke-width="2"/><rect x="260.0" y="230.0" width="120.0" height="32.4" rx="3" fill="#b3b3b3" stroke="#4d4d4d" stroke-width="2"/><line x1="295" y1="205" x2="295" y2="240" stroke="#1a1a1a" stroke-width="2.7"/><line x1="295" y1="205" x2="268.0" y2="192.4" stroke="#1a1a1a" stroke-width="2.7"/><circle cx="266.2" cy="191.5" r="5.4" fill="#1a1a1a"/><line x1="320" y1="0" x2="320" y2="540" stroke="#808080" stroke-width="1.5" stroke-dasharray="6 8" opacity="0.6"/><line x1="640" y1="0" x2="640" y2="540" stroke="#808080" stroke-width="1.5" stroke-dasharray="6 8" opacity="0.6"/><line x1="0" y1="180" x2="960" y2="180" stroke="#808080" stroke-width="1.5" stroke-dasharray="6 8" opacity="0.6"/><line x1="0" y1="360" x2="960" y2="360" stroke="#808080" stroke-width="1.5" stroke-dasharray="6 8" opacity="0.6"/><line x1="295" y1="4" x2="295" y2="60" stroke="#1a1a1a" stroke-width="2.5" marker-start="url(#arrow)" marker-end="url(#arrow)"/><line x1="235" y1="60" x2="307" y2="60" stroke="#1a1a1a" stroke-width="1.5" stroke-dasharray="4 4"/><rect x="311" y="13.0" width="94" height="32" rx="6" fill="#ffffff" fill-opacity="0.94" stroke="#1a1a1a" stroke-width="1.5"/><text x="323" y="32.0" font-size="16" font-weight="normal" fill="#1a1a1a" text-anchor="start" >Headroom</text><rect x="486" y="94" width="448" height="252" rx="6" fill="none" stroke="#1a1a1a" stroke-width="2.5" stroke-dasharray="12 8"/><text x="710.0" y="190" font-size="22" font-weight="bold" fill="#1a1a1a" text-anchor="middle" >Keep this side empty:</text><text x="710.0" y="222" font-size="20" font-weight="normal" fill="#1a1a1a" text-anchor="middle" >the slide goes here in</text><text x="710.0" y="252" font-size="20" font-weight="bold" fill="#1a1a1a" text-anchor="middle" >Scene 7 — Sermon Split</text><rect x="564" y="482" width="380" height="34" rx="6" fill="#ffffff" fill-opacity="0.94" stroke="#1a1a1a" stroke-width="1.5"/><text x="575.5999999999999" y="503" font-size="18" font-weight="normal" fill="#1a1a1a" text-anchor="start" >Full body, subject on the left third</text></g><rect x="16" y="16" width="125" height="40" rx="6" fill="#1a1a1a"/><text x="30" y="44" font-size="22" font-weight="bold" fill="#ffffff" text-anchor="start" >Cam 2 P3</text><rect x="1.5" y="1.5" width="957" height="537" fill="none" stroke="#1a1a1a" stroke-width="3"/>
</svg>
