<svg xmlns="http://www.w3.org/2000/svg" viewBox="0 0 960 540" width="960" height="540" role="img" aria-labelledby="t d" font-family="'Segoe UI', Roboto, Helvetica, Arial, sans-serif">
<title id="t">Scene 2 — Cam 1 + Lyrics: Cam 1 with the ProPresenter lyrics in a lower-third bar</title>
<desc id="d">Mock 16:9 program frame for Scene 2 — Cam 1 + Lyrics: Cam 1 with the ProPresenter lyrics in a lower-third bar.</desc>
<defs>
<marker id="arrow" viewBox="0 0 10 10" refX="9" refY="5" markerWidth="8" markerHeight="8" orient="auto-start-reverse"><path d="M0,0 L10,5 L0,10 z" fill="#1a1a1a"/></marker>
<marker id="arrow-mid" viewBox="0 0 10 10" refX="9" refY="5" markerWidth="8" markerHeight="8" orient="auto-start-reverse"><path d="M0,0 L10,5 L0,10 z" fill="#808080"/></marker>
<filter id="blur" x="-10%" y="-10%" width="120%" height="120%"><feGaussianBlur stdDeviation="12"/></filter>
<clipPath id="frame"><rect width="960" height="540"/></clipPath>
</defs>
<rect width="960" height="540" fill="#ffffff"/><g clip-path="url(#frame)"><rect width="960" height="540" fill="#f0f0f0"/><rect y="470" width="960" height="50" fill="#e0e0e0"/><rect y="520" width="960" height="40" fill="#b3b3b3"/><rect y="560" width="960" height="-20" fill="#ffffff"/><circle cx="480.0" cy="128.8" r="58.8" fill="#4d4d4d"/><path d="M445.7,177.8 L514.3,177.8 L519.2,202.3 Q612.3,207.2 622.1,275.8 L631.9,560.0 L582.9,579.6 L573.1,1050.0 L499.6,1050.0 L480.0,628.6 L460.4,1050.0 L386.9,1050.0 L377.1,579.6 L328.1,560.0 L337.9,275.8 Q347.7,207.2 440.8,202.3 Z" fill="#4d4d4d"/><line x1="560" y1="210" x2="560" y2="560" stroke="#1a1a1a" stroke-width="4.2"/><line x1="560" y1="210" x2="518.0" y2="190.4" stroke="#1a1a1a" stroke-width="4.2"/><circle cx="515.2" cy="189.0" r="8.4" fill="#1a1a1a"/><rect y="360" width="960" height="180" fill="#1a1a1a" fill-opacity="0.78"/><text x="480.0" y="428.0" font-size="36" font-weight="bold" fill="#ffffff" text-anchor="middle" >Lyrics line 1</text><text x="480.0" y="482.0" font-size="36" font-weight="bold" fill="#ffffff" text-anchor="middle" >Lyrics line 2</text><rect x="24" y="172" width="74" height="34" rx="6" fill="#ffffff" fill-opacity="0.94" stroke="#1a1a1a" stroke-width="1.5"/><text x="36" y="193" font-size="18" font-weight="normal" fill="#1a1a1a" text-anchor="start" >Cam 1</text><rect x="682" y="312" width="262" height="34" rx="6" fill="#ffffff" fill-opacity="0.94" stroke="#1a1a1a" stroke-width="1.5"/><text x="694.4" y="333" font-size="18" font-weight="normal" fill="#1a1a1a" text-anchor="start" >Lyrics: lower third only</text></g><rect x="16" y="16" width="318" height="40" rx="6" fill="#1a1a1a"/><text x="30" y="44" font-size="22" font-weight="bold" fill="#ffffff" text-anchor="start" >Scene 2 — Cam 1 + Lyrics</text><rect x="1.5" y="1.5" width="957" height="537" fill="none" stroke="#1a1a1a" stroke-width="3"/>
</svg>
